<?xml version="1.0" encoding="UTF-8" standalone="no"?>
<!-- Created with Inkscape (http://www.inkscape.org/) -->

<svg
   width="16"
   height="16"
   viewBox="0 0 16 16"
   version="1.1"
   id="svg1"
   inkscape:version="1.4.3 (0d15f75042, 2025-12-25)"
   sodipodi:docname="fillstones.svg"
   xmlns:inkscape="http://www.inkscape.org/namespaces/inkscape"
   xmlns:sodipodi="http://sodipodi.sourceforge.net/DTD/sodipodi-0.dtd"
   xmlns="http://www.w3.org/2000/svg"
   xmlns:svg="http://www.w3.org/2000/svg">
  <sodipodi:namedview
     id="namedview1"
     pagecolor="#ffffff"
     bordercolor="#000000"
     borderopacity="0.25"
     inkscape:showpageshadow="2"
     inkscape:pageopacity="0.0"
     inkscape:pagecheckerboard="true"
     inkscape:deskcolor="#d1d1d1"
     inkscape:document-units="px"
     showgrid="true"
     showborder="false"
     labelstyle="default"
     borderlayer="false"
     inkscape:zoom="32"
     inkscape:cx="6.8125"
     inkscape:cy="9.046875"
     inkscape:window-width="1896"
     inkscape:window-height="1030"
     inkscape:window-x="0"
     inkscape:window-y="0"
     inkscape:window-maximized="1"
     inkscape:current-layer="layer1">
    <inkscape:grid
       id="grid2"
       units="px"
       originx="0"
       originy="0"
       spacingx="1"
       spacingy="1"
       empcolor="#0099e5"
       empopacity="0.30196078"
       color="#0099e5"
       opacity="0.14901961"
       empspacing="5"
       enabled="true"
       visible="true"
       dotted="false"
       snapvisiblegridlinesonly="true" />
  </sodipodi:namedview>
  <defs
     id="defs1" />
  <g
     inkscape:label="Layer 1"
     inkscape:groupmode="layer"
     id="layer1">
    <path
       id="path157"
       style="fill:#ffffff;stroke:#ffffff;stroke-width:0"
       d="M 8.3024503,6.6687807 C 8.067551,6.660697 7.8212955,6.8456192 7.6482776,7.0248746 8.0913832,7.2072324 8.5868634,7.8024337 8.3704681,8.2612007 8.2182885,8.5838285 8.2957127,9.0374874 8.0943954,9.3094776 c 0.3222012,0.03444 0.7228124,0.0267 1.012267,-0.02201 C 9.0110124,9.0896083 8.9806292,8.823452 8.9806292,8.6312943 c 0,-0.4558164 0.5659516,-0.4641569 0.792209,-0.8782315 C 9.7247936,7.1079332 9.1095933,7.1701009 8.5305104,6.7488018 8.4579072,6.6959809 8.38075,6.6714752 8.3024503,6.6687807 Z M 7.3882091,7.1729136 C 7.3043998,7.1723792 7.2230044,7.1948898 7.1501462,7.2449326 6.6724807,7.5730192 6.1258761,7.7017227 6.1258761,8.2652018 c 0,0.2817396 0.056471,0.7049331 0.2520665,0.9242439 0.1686001,0.1890419 1.3592129,0.1897029 1.5284032,0 C 8.1019419,8.9701346 8.0383806,8.5549434 8.1744165,8.2652018 8.3764747,7.8348399 7.8407793,7.1757995 7.3882091,7.1729136 Z m 2.6526999,0.7281922 c -0.056045,0.00257 -0.1143134,0.023666 -0.174046,0.068018 -0.2964799,0.2201388 -0.6681763,0.2983468 -0.6681763,0.6661758 0,0.1839145 0.036362,0.4589967 0.1640432,0.6021591 0.1013247,0.113611 0.7688641,0.123863 0.9602531,0.02801 0.0018,0.0021 0.0041,0.0039 0.006,0.006 0.07039,0.07893 0.567524,0.07921 0.638168,0 0.181697,-0.1075715 0.130273,-0.2698929 0.11203,-0.3861019 -0.05202,-0.3312902 -0.179922,-0.5301399 -0.428112,-0.4261124 -0.04232,0.017737 -0.08379,0.036728 -0.124034,0.056015 C 10.481688,8.2261308 10.28377,7.8899759 10.040909,7.9011058 Z m -4.6892372,0.330087 c -0.1667134,0.012828 -0.3396824,0.2828625 -0.4381156,0.4941304 -0.059493,0.1276904 0.090251,0.4244856 0.1880496,0.5341414 0.084301,0.09452 0.6796065,0.09485 0.7642017,0 C 5.9636054,9.1498086 6.0453617,9.1698022 6.0338517,9.0294034 6.0112185,8.7533222 5.866744,8.6606585 5.4877077,8.2872076 5.443634,8.2437833 5.3983516,8.227601 5.3516718,8.2311928 Z" />
    <path
       id="path161"
       style="fill:#ffffff;stroke:#ffffff;stroke-width:0"
       d="m 16.302443,6.6687808 c -0.234899,-0.00808 -0.481155,0.1768385 -0.654173,0.3560939 0.443106,0.1823578 0.938586,0.7775591 0.722191,1.2363261 -0.15218,0.3226278 -0.07475,0.7762867 -0.276073,1.0482769 0.322201,0.03444 0.722813,0.0267 1.012267,-0.02201 -0.09565,-0.1978593 -0.126033,-0.4640156 -0.126033,-0.6561733 0,-0.4558164 0.565952,-0.4641569 0.792209,-0.8782315 -0.04804,-0.6451296 -0.663245,-0.5829619 -1.242328,-1.004261 -0.0726,-0.052821 -0.14976,-0.077327 -0.22806,-0.080021 z m -0.914241,0.5041329 c -0.08381,-5.344e-4 -0.165205,0.021976 -0.238063,0.072019 -0.477665,0.3280866 -1.02427,0.4567901 -1.02427,1.0202692 0,0.2817396 0.05647,0.7049331 0.252066,0.9242439 0.168601,0.1890419 1.359213,0.1897029 1.528404,0 0.195596,-0.2193111 0.132034,-0.6345023 0.26807,-0.9242439 C 16.376468,7.83484 15.840772,7.1757996 15.388202,7.1729137 Z m 2.6527,0.7281922 c -0.05604,0.00257 -0.114314,0.023666 -0.174046,0.068018 -0.29648,0.2201388 -0.668176,0.2983468 -0.668176,0.6661758 0,0.1839145 0.03636,0.4589967 0.164043,0.6021591 0.101324,0.113611 0.768864,0.123863 0.960253,0.02801 0.0018,0.0021 0.0041,0.0039 0.006,0.006 0.07039,0.07893 0.567524,0.07921 0.638168,0 0.181697,-0.1075715 0.130273,-0.2698929 0.11203,-0.3861019 -0.05202,-0.3312902 -0.179922,-0.5301399 -0.428112,-0.4261124 -0.04232,0.017737 -0.08379,0.036728 -0.124034,0.056015 C 18.481681,8.2261309 18.283763,7.889976 18.040902,7.9011059 Z m -4.689237,0.330087 c -0.166714,0.012828 -0.339683,0.2828625 -0.438116,0.4941304 -0.05949,0.1276904 0.09025,0.4244856 0.18805,0.5341414 0.0843,0.09452 0.679606,0.09485 0.764201,0 0.0978,-0.109656 0.179555,-0.089662 0.168045,-0.2300612 -0.02263,-0.2760812 -0.167108,-0.3687449 -0.546144,-0.7421958 -0.04407,-0.043424 -0.08936,-0.059607 -0.136036,-0.056015 z" />
    <path
       id="path162"
       style="fill:#ffffff;stroke:#ffffff;stroke-width:0"
       d="m 12.30245,-1.3312195 c -0.234899,-0.00808 -0.481155,0.1768385 -0.654173,0.35609392 0.443106,0.1823578 0.938586,0.7775591 0.722191,1.23632611 -0.152181,0.3226278 -0.07475,0.77628667 -0.276073,1.04827687 0.322201,0.03444 0.722812,0.0267 1.012267,-0.02201 -0.09565,-0.1978593 -0.126033,-0.46401557 -0.126033,-0.65617327 0,-0.4558164 0.565952,-0.4641569 0.792209,-0.87823151 -0.04804,-0.6451296 -0.663245,-0.5829619 -1.242328,-1.00426102 -0.0726,-0.052821 -0.14976,-0.077327 -0.22806,-0.080021 z m -0.914241,0.50413292 c -0.08381,-5.344e-4 -0.165205,0.021976 -0.238063,0.072019 -0.477665,0.3280866 -1.024271,0.4567901 -1.024271,1.02026921 0,0.2817396 0.05647,0.7049331 0.252066,0.92424387 0.168602,0.1890419 1.359214,0.1897029 1.528405,0 0.195595,-0.21931107 0.132034,-0.63450227 0.26807,-0.92424387 0.202059,-0.43036191 -0.333637,-1.08940231 -0.786207,-1.09228821 z m 2.6527,0.7281922 c -0.05604,0.00257 -0.114314,0.023666 -0.174046,0.068018 -0.29648,0.22013881 -0.668176,0.29834681 -0.668176,0.66617581 0,0.1839145 0.03636,0.45899667 0.164043,0.60215907 0.101324,0.113611 0.768864,0.123863 0.960253,0.02801 0.0018,0.0021 0.0041,0.0039 0.006,0.006 0.07039,0.07893 0.567524,0.07921 0.638168,0 0.181697,-0.1075715 0.130273,-0.2698929 0.11203,-0.38610187 -0.05202,-0.3312902 -0.179922,-0.5301399 -0.428112,-0.4261124 -0.04232,0.017737 -0.08379,0.036728 -0.124034,0.056015 -0.04535,-0.2891386 -0.243265,-0.62529351 -0.486126,-0.61416361 z M 9.3516715,0.23119263 c -0.166714,0.012828 -0.339683,0.2828625 -0.438116,0.4941304 -0.05949,0.1276904 0.09025,0.42448557 0.18805,0.53414137 0.0843,0.09452 0.679606,0.09485 0.764201,0 0.0978,-0.109656 0.1795545,-0.089662 0.1680445,-0.2300612 -0.02263,-0.27608117 -0.1671075,-0.36874487 -0.5461435,-0.74219577 -0.04407,-0.043424 -0.08936,-0.059607 -0.136036,-0.0560148 z" />
    <path
       id="path163"
       style="fill:#ffffff;stroke:#ffffff;stroke-width:0"
       d="m 4.3024495,-1.3312195 c -0.234899,-0.00808 -0.481155,0.1768385 -0.654173,0.35609394 0.443106,0.1823578 0.938586,0.7775591 0.722191,1.23632611 -0.152181,0.3226278 -0.07475,0.77628665 -0.276073,1.04827685 0.322201,0.03444 0.722812,0.0267 1.012267,-0.02201 -0.09565,-0.1978593 -0.126033,-0.46401555 -0.126033,-0.65617325 0,-0.4558164 0.565952,-0.4641569 0.792209,-0.87823151 -0.04804,-0.6451296 -0.663245,-0.5829619 -1.242328,-1.00426104 -0.0726,-0.052821 -0.14976,-0.077327 -0.22806,-0.080021 z m -0.914241,0.50413294 c -0.08381,-5.344e-4 -0.165205,0.021976 -0.238063,0.072019 -0.477665,0.3280866 -1.024271,0.4567901 -1.024271,1.02026921 0,0.2817396 0.05647,0.7049331 0.252066,0.92424385 0.168602,0.1890419 1.359214,0.1897029 1.528405,0 0.195595,-0.21931105 0.132034,-0.63450225 0.26807,-0.92424385 0.202059,-0.43036191 -0.333637,-1.08940231 -0.786207,-1.09228821 z m 2.6527,0.7281922 c -0.05604,0.00257 -0.114314,0.023666 -0.174046,0.068018 -0.29648,0.22013881 -0.668176,0.29834681 -0.668176,0.66617581 0,0.1839145 0.03636,0.45899665 0.164043,0.60215905 0.101324,0.113611 0.768864,0.123863 0.960253,0.02801 0.0018,0.0021 0.0041,0.0039 0.006,0.006 0.07039,0.07893 0.567524,0.07921 0.638168,0 0.181697,-0.1075715 0.130273,-0.2698929 0.11203,-0.38610185 -0.05202,-0.3312902 -0.179922,-0.5301399 -0.428112,-0.4261124 -0.04232,0.017737 -0.08379,0.036728 -0.124034,0.056015 -0.04535,-0.2891386 -0.243265,-0.62529351 -0.486126,-0.61416361 z M 1.351671,0.23119265 c -0.166714,0.012828 -0.339683,0.2828625 -0.43811605,0.4941304 -0.05949,0.1276904 0.0902501,0.42448555 0.18805005,0.53414135 0.0843,0.09452 0.679606,0.09485 0.764201,0 0.0978,-0.109656 0.1795545,-0.089662 0.1680445,-0.2300612 C 2.0112205,0.75332205 1.866743,0.66065835 1.487707,0.28720745 1.443637,0.24378345 1.398347,0.22760045 1.351671,0.23119265 Z" />
    <path
       id="path164"
       style="fill:#ffffff;stroke:#ffffff;stroke-width:0"
       d="m 0.30244977,6.6687806 c -0.234899,-0.00808 -0.481155,0.1768385 -0.654173,0.356094 0.443106,0.1823578 0.938586,0.7775591 0.722191,1.2363261 -0.152181,0.3226278 -0.07475,0.7762866 -0.276073,1.0482768 0.322201,0.03444 0.722812,0.0267 1.01226703,-0.02201 C 1.0110118,9.0896082 0.98062877,8.823452 0.98062877,8.6312943 c 0,-0.4558164 0.56595203,-0.4641569 0.79220903,-0.8782315 -0.04804,-0.6451296 -0.663245,-0.5829619 -1.24232803,-1.0042611 -0.0726,-0.052821 -0.14976,-0.077327 -0.22806,-0.080021 z m -0.914241,0.504133 c -0.08381,-5.344e-4 -0.165205,0.021976 -0.238063,0.072019 -0.47766497,0.3280866 -1.02427097,0.4567901 -1.02427097,1.0202692 0,0.2817396 0.05647,0.7049331 0.252066,0.9242438 0.168602,0.1890419 1.35921397,0.1897029 1.52840497,0 0.195595,-0.219311 0.132034,-0.6345022 0.26807,-0.9242438 0.202059,-0.4303619 -0.333637,-1.0894023 -0.786207,-1.0922882 z M 2.0409088,7.9011058 c -0.05604,0.00257 -0.114314,0.023666 -0.174046,0.068018 -0.29648,0.2201388 -0.668176,0.2983468 -0.668176,0.6661758 0,0.1839145 0.03636,0.4589966 0.164043,0.602159 0.101324,0.113611 0.768864,0.123863 0.960253,0.02801 0.0018,0.0021 0.0041,0.0039 0.006,0.006 0.07039,0.07893 0.567524,0.07921 0.638168,0 0.181697,-0.1075715 0.130273,-0.2698929 0.11203,-0.3861018 -0.05202,-0.3312902 -0.179922,-0.5301399 -0.428112,-0.4261124 -0.04232,0.017737 -0.08379,0.036728 -0.124034,0.056015 -0.04535,-0.2891386 -0.243265,-0.6252935 -0.486126,-0.6141636 z m -4.6892375,0.330087 c -0.166714,0.012828 -0.339683,0.2828625 -0.4381161,0.4941304 -0.05949,0.1276904 0.09025,0.4244855 0.1880501,0.5341413 0.0843,0.09452 0.679606,0.09485 0.764201,0 0.0978,-0.109656 0.1795545,-0.089662 0.1680445,-0.2300612 -0.02263,-0.2760811 -0.1671075,-0.3687448 -0.5461435,-0.7421957 -0.04407,-0.043424 -0.08936,-0.059607 -0.136036,-0.056015 z" />
    <path
       id="path165"
       style="fill:#ffffff;stroke:#ffffff;stroke-width:0"
       d="m 4.3024498,14.668766 c -0.234899,-0.0081 -0.481155,0.176838 -0.654173,0.356094 0.443106,0.182357 0.938586,0.777559 0.722191,1.236326 -0.152181,0.322627 -0.07475,0.776286 -0.276073,1.048276 0.322201,0.03444 0.722812,0.0267 1.012267,-0.02201 -0.09565,-0.197859 -0.126033,-0.464015 -0.126033,-0.656173 0,-0.455816 0.565952,-0.464157 0.792209,-0.878231 -0.04804,-0.64513 -0.663245,-0.582962 -1.242328,-1.004261 -0.0726,-0.05282 -0.14976,-0.07733 -0.22806,-0.08002 z m -0.914241,0.504133 c -0.08381,-5.35e-4 -0.165205,0.02198 -0.238063,0.07202 -0.477665,0.328086 -1.024271,0.45679 -1.024271,1.020269 0,0.281739 0.05647,0.704933 0.252066,0.924244 0.168602,0.189041 1.359214,0.189702 1.528405,0 0.195595,-0.219311 0.132034,-0.634503 0.26807,-0.924244 0.202059,-0.430362 -0.333637,-1.089403 -0.786207,-1.092288 z m 2.6527,0.728192 c -0.05604,0.0026 -0.114314,0.02367 -0.174046,0.06802 -0.29648,0.220139 -0.668176,0.298347 -0.668176,0.666176 0,0.183914 0.03636,0.458996 0.164043,0.602159 0.101324,0.113611 0.768864,0.123863 0.960253,0.02801 0.0018,0.0021 0.0041,0.0039 0.006,0.006 0.07039,0.07893 0.567524,0.07921 0.638168,0 0.181697,-0.107572 0.130273,-0.269893 0.11203,-0.386102 -0.05202,-0.33129 -0.179922,-0.53014 -0.428112,-0.426113 -0.04232,0.01774 -0.08379,0.03673 -0.124034,0.05601 -0.04535,-0.289138 -0.243265,-0.625293 -0.486126,-0.614163 z m -4.6892375,0.330087 c -0.166714,0.01283 -0.339683,0.282862 -0.4381161,0.49413 -0.05949,0.127691 0.09025,0.424486 0.1880501,0.534141 0.0843,0.09452 0.679606,0.09485 0.764201,0 0.0978,-0.109656 0.1795545,-0.08966 0.1680445,-0.230061 -0.02263,-0.276081 -0.1671075,-0.368745 -0.5461435,-0.742195 -0.04407,-0.04342 -0.08936,-0.05961 -0.136036,-0.05601 z" />
    <path
       id="path166"
       style="fill:#ffffff;stroke:#ffffff;stroke-width:0"
       d="m 12.30245,14.668781 c -0.234899,-0.0081 -0.481155,0.176838 -0.654173,0.356094 0.443106,0.182357 0.938586,0.777559 0.722191,1.236326 -0.152181,0.322627 -0.07475,0.776286 -0.276073,1.048276 0.322201,0.03444 0.722812,0.0267 1.012267,-0.02201 -0.09565,-0.197859 -0.126033,-0.464015 -0.126033,-0.656173 0,-0.455816 0.565952,-0.464157 0.792209,-0.878231 -0.04804,-0.64513 -0.663245,-0.582962 -1.242328,-1.004261 -0.0726,-0.05282 -0.14976,-0.07733 -0.22806,-0.08002 z m -0.914241,0.504133 c -0.08381,-5.35e-4 -0.165205,0.02198 -0.238063,0.07202 -0.477665,0.328086 -1.024271,0.45679 -1.024271,1.020269 0,0.281739 0.05647,0.704933 0.252066,0.924244 0.168602,0.189041 1.359214,0.189702 1.528405,0 0.195595,-0.219311 0.132034,-0.634503 0.26807,-0.924244 0.202059,-0.430362 -0.333637,-1.089403 -0.786207,-1.092289 z m 2.6527,0.728192 c -0.05604,0.0026 -0.114314,0.02367 -0.174046,0.06802 -0.29648,0.220139 -0.668176,0.298347 -0.668176,0.666176 0,0.183914 0.03636,0.458996 0.164043,0.602159 0.101324,0.113611 0.768864,0.123863 0.960253,0.02801 0.0018,0.0021 0.0041,0.0039 0.006,0.006 0.07039,0.07893 0.567524,0.07921 0.638168,0 0.181697,-0.107572 0.130273,-0.269893 0.11203,-0.386102 -0.05202,-0.33129 -0.179922,-0.53014 -0.428112,-0.426113 -0.04232,0.01774 -0.08379,0.03673 -0.124034,0.05601 -0.04535,-0.289138 -0.243265,-0.625293 -0.486126,-0.614163 z m -4.6892376,0.330087 c -0.166714,0.01283 -0.339683,0.282862 -0.4381161,0.49413 -0.05949,0.127691 0.09025,0.424486 0.1880501,0.534141 0.0843,0.09452 0.679606,0.09485 0.764201,0 0.0978,-0.109656 0.1795546,-0.08966 0.1680446,-0.230061 -0.02263,-0.276081 -0.1671076,-0.368745 -0.5461436,-0.742195 -0.04407,-0.04342 -0.08936,-0.05961 -0.136036,-0.05601 z" />
  </g>
</svg>
